<svg xmlns="http://www.w3.org/2000/svg" viewBox="0 0 400 400">
  <defs>
    <linearGradient id="bgK" x1="0" y1="0" x2="0" y2="1">
      <stop offset="0" stop-color="#fff3e0"/>
      <stop offset="1" stop-color="#ffd9ec"/>
    </linearGradient>
  </defs>
  <rect width="400" height="400" fill="url(#bgK)"/>
  <!-- 桌面 -->
  <rect x="0" y="320" width="400" height="80" fill="#e6c7a3"/>
  <rect x="0" y="312" width="400" height="10" fill="#c69f73"/>
  <!-- 咖啡杯 -->
  <ellipse cx="120" cy="305" rx="38" ry="10" fill="#7a4368"/>
  <path d="M 82 305 L 88 350 Q 90 358 100 360 L 140 360 Q 150 358 152 350 L 158 305 Z" fill="#f8e7d2"/>
  <path d="M 158 320 Q 180 320 180 340 Q 180 358 158 358" fill="none" stroke="#f8e7d2" stroke-width="6"/>
  <!-- 咖啡液面 -->
  <ellipse cx="120" cy="305" rx="34" ry="8" fill="#6b3a23"/>
  <!-- 蒸汽 -->
  <g stroke="#ffffff" stroke-width="4" fill="none" stroke-linecap="round" opacity="0.85">
    <path d="M 110 270 Q 105 250 115 230 Q 125 215 115 195"/>
    <path d="M 130 275 Q 138 255 128 235"/>
  </g>
  <!-- 小猫身体 -->
  <ellipse cx="260" cy="285" rx="60" ry="40" fill="#f4cba0"/>
  <!-- 小猫头 -->
  <circle cx="260" cy="230" r="48" fill="#f4cba0"/>
  <!-- 耳朵 -->
  <path d="M 222 198 L 215 165 L 245 188 Z" fill="#f4cba0"/>
  <path d="M 298 198 L 305 165 L 275 188 Z" fill="#f4cba0"/>
  <path d="M 226 192 L 222 175 L 240 188 Z" fill="#ff9bbf"/>
  <path d="M 294 192 L 298 175 L 280 188 Z" fill="#ff9bbf"/>
  <!-- 条纹 -->
  <g fill="#d39060" opacity="0.7">
    <ellipse cx="240" cy="195" rx="10" ry="3"/>
    <ellipse cx="280" cy="195" rx="10" ry="3"/>
    <ellipse cx="260" cy="190" rx="6" ry="3"/>
  </g>
  <!-- 眼睛 -->
  <ellipse cx="244" cy="232" rx="8" ry="10" fill="#3d3556"/>
  <ellipse cx="276" cy="232" rx="8" ry="10" fill="#3d3556"/>
  <circle cx="247" cy="229" r="2.5" fill="#fff"/>
  <circle cx="279" cy="229" r="2.5" fill="#fff"/>
  <!-- 鼻嘴 -->
  <path d="M 258 250 L 260 256 L 262 250 Z" fill="#7a4368"/>
  <path d="M 254 258 Q 260 264 266 258" fill="none" stroke="#7a4368" stroke-width="2.5" stroke-linecap="round"/>
  <!-- 腮红 -->
  <ellipse cx="232" cy="252" rx="8" ry="4" fill="#ff8fb6" opacity="0.7"/>
  <ellipse cx="288" cy="252" rx="8" ry="4" fill="#ff8fb6" opacity="0.7"/>
  <!-- 爪子 -->
  <ellipse cx="222" cy="310" rx="12" ry="10" fill="#f4cba0"/>
  <ellipse cx="298" cy="310" rx="12" ry="10" fill="#f4cba0"/>
  <!-- 心 -->
  <path d="M 80 100 q -8 -10 -16 -2 q -6 6 0 12 l 16 14 l 16 -14 q 6 -6 0 -12 q -8 -8 -16 2 z" fill="#ff5e8e"/>
  <!-- 星星 -->
  <polygon points="340,90 343,98 351,98 345,103 347,111 340,106 333,111 335,103 329,98 337,98" fill="#ffd24d"/>
</svg>
